<svg xmlns="http://www.w3.org/2000/svg" version="1.1" xmlns:xlink="http://www.w3.org/1999/xlink" width="512" height="512" x="0" y="0" viewBox="0 0 16 16" style="enable-background:new 0 0 512 512" xml:space="preserve" class=""><g><path d="M15.5 12a.52.52 0 0 1-.43-.24l-2.59-4.33-1.56 2.35a.52.52 0 0 1-.44.22.49.49 0 0 1-.41-.25l-3.6-6.3-5.55 8.33a.51.51 0 0 1-.7.14.51.51 0 0 1-.14-.7l6-9a.5.5 0 0 1 .85 0l3.6 6.3 1.55-2.33a.51.51 0 0 1 .85 0l3 5a.51.51 0 0 1-.17.69.48.48 0 0 1-.26.12z" data-name="11" fill="#f5f5f5" opacity="1" data-original="#000000"></path></g></svg>