<?xml version="1.0" encoding="iso-8859-1"?>
<!-- Uploaded to: SVG Repo, www.svgrepo.com, Generator: SVG Repo Mixer Tools -->
<svg height="800px" width="800px" version="1.1" id="Layer_1" xmlns="http://www.w3.org/2000/svg" xmlns:xlink="http://www.w3.org/1999/xlink" 
	 viewBox="0 0 512 512" xml:space="preserve">
<path style="fill:#FF1A1A;" d="M324.115,169.17c7.983,3.527,16.804,5.499,26.092,5.499c35.706,0,64.653-28.946,64.653-64.654
	c0-35.706-28.947-64.653-64.653-64.653c-32.699,0-59.711,24.278-64.033,55.788L324.115,169.17z"/>
<polygon style="fill:#3F5968;" points="334.229,331.852 184.819,83.157 38.71,331.852 "/>
<polyline style="fill:#2D4551;" points="207.207,120.422 253.38,42.363 414.859,331.852 334.229,331.852 "/>
<path d="M398.703,413.249h-52.12c-5.77,0-10.449,4.678-10.449,10.449c0,5.77,4.679,10.449,10.449,10.449h52.12
	c5.771,0,10.449-4.679,10.449-10.449C409.152,417.928,404.474,413.249,398.703,413.249z"/>
<path d="M320.691,423.698c0-5.771-4.679-10.449-10.449-10.449H113.022c-5.77,0-10.449,4.678-10.449,10.449
	c0,5.77,4.679,10.449,10.449,10.449h197.219C316.013,434.147,320.691,429.469,320.691,423.698z"/>
<path d="M379.192,459.189h-21.827c-5.77,0-10.449,4.678-10.449,10.449c0,5.771,4.679,10.449,10.449,10.449h21.827
	c5.77,0,10.449-4.678,10.449-10.449C389.641,463.867,384.963,459.189,379.192,459.189z"/>
<path d="M226.011,459.189h-28.505c-5.77,0-10.449,4.678-10.449,10.449c0,5.771,4.679,10.449,10.449,10.449h28.505
	c5.77,0,10.449-4.678,10.449-10.449C236.46,463.867,231.781,459.189,226.011,459.189z"/>
<path d="M161.98,459.189h-24.429c-5.77,0-10.449,4.678-10.449,10.449c0,5.771,4.679,10.449,10.449,10.449h24.429
	c5.771,0,10.449-4.678,10.449-10.449C172.429,463.867,167.75,459.189,161.98,459.189z"/>
<path d="M321.84,459.189h-60.302c-5.771,0-10.449,4.678-10.449,10.449c0,5.771,4.678,10.449,10.449,10.449h60.302
	c5.77,0,10.449-4.678,10.449-10.449C332.289,463.867,327.61,459.189,321.84,459.189z"/>
<path d="M501.551,321.371h-25.213V286.53c7.218,4.718,15.829,7.471,25.078,7.471c5.771,0,10.449-4.678,10.449-10.449
	c0-5.771-4.678-10.449-10.449-10.449c-13.827,0-25.078-11.249-25.078-25.078v-2.231c7.218,4.718,15.829,7.471,25.078,7.471
	c5.771,0,10.449-4.678,10.449-10.449s-4.678-10.449-10.449-10.449c-13.827,0-25.078-11.249-25.078-25.078v-2.231
	c7.218,4.718,15.829,7.471,25.078,7.471c5.771,0,10.449-4.678,10.449-10.449s-4.678-10.449-10.449-10.449
	c-13.827,0-25.078-11.249-25.078-25.078c0-5.771-4.678-10.449-10.449-10.449c-5.77,0-10.449,4.678-10.449,10.449
	c0,13.828-11.25,25.078-25.078,25.078c-5.77,0-10.449,4.678-10.449,10.449s4.679,10.449,10.449,10.449
	c9.248,0,17.859-2.754,25.078-7.471v2.231c0,13.828-11.25,25.078-25.078,25.078c-5.77,0-10.449,4.678-10.449,10.449
	s4.679,10.449,10.449,10.449c9.248,0,17.859-2.754,25.078-7.471v2.231c0,13.828-11.25,25.078-25.078,25.078
	c-5.77,0-10.449,4.678-10.449,10.449c0,5.771,4.679,10.449,10.449,10.449c9.248,0,17.859-2.754,25.078-7.471v34.841h-34.462
	l-76.12-136.464c1.773,0.124,3.554,0.21,5.348,0.21c41.411,0,75.102-33.692,75.102-75.103s-33.691-75.102-75.102-75.102
	c-28.488,0-53.84,16.231-66.517,40.334l-21.182-37.974c-1.822-3.267-5.252-5.31-8.992-5.358c-3.729-0.066-7.22,1.908-9.126,5.127
	l-37.25,62.974l-13.362-22.239c-1.89-3.146-5.29-5.069-8.957-5.069c-0.018,0-0.033,0-0.051,0c-3.686,0.019-7.091,1.978-8.958,5.157
	L32.749,321.371h-22.3C4.678,321.371,0,326.049,0,331.82c0,5.771,4.678,10.449,10.449,10.449h491.102
	c5.77,0,10.449-4.678,10.449-10.449C512,326.048,507.321,321.371,501.551,321.371z M350.206,55.81
	c29.887,0,54.204,24.316,54.204,54.204s-24.317,54.205-54.204,54.205c-6.467,0-12.759-1.136-18.761-3.359l-34.351-61.582
	C302.124,74.278,324.382,55.81,350.206,55.81z M253.115,63.337l143.933,258.034h-56.925l-120.75-200.99L253.115,63.337z
	 M212.089,321.371l-33.105-42.558l37.606-50.151c2.349-3.131,2.75-7.312,1.04-10.833l-22.356-46.021V120.85l120.468,200.52H212.089
	V321.371z M174.377,121.56v52.651c0,1.582,0.359,3.143,1.05,4.565l20.62,42.45l-38.57,51.435c-2.827,3.77-2.782,8.965,0.112,12.686
	l28.024,36.025H56.986L174.377,121.56z"/>
<path d="M72.512,367.311H37.814c-5.77,0-10.449,4.679-10.449,10.449s4.678,10.449,10.449,10.449h34.698
	c5.77,0,10.449-4.679,10.449-10.449C82.961,371.989,78.283,367.311,72.512,367.311z"/>
<path d="M470.198,367.311h-57.453c-5.77,0-10.449,4.679-10.449,10.449s4.679,10.449,10.449,10.449h57.453
	c5.77,0,10.449-4.679,10.449-10.449C480.647,371.989,475.969,367.311,470.198,367.311z"/>
<path d="M377.219,388.209c5.77,0,10.449-4.679,10.449-10.449s-4.679-10.449-10.449-10.449h-269.18
	c-5.77,0-10.449,4.679-10.449,10.449s4.679,10.449,10.449,10.449H377.219z"/>
</svg>